<svg width="24" height="24" viewBox="0 0 24 24" fill="none" xmlns="http://www.w3.org/2000/svg">
<path d="M11 20H10V22H9V23H5V22H4V16H5V15H6V18H8V17H10V16H12V15H14V17H13V18H11V20Z" fill="white"/>
<path d="M22 9V7H21V5H20V4H19V3H17V2H15V1H9V2H7V3H5V4H4V5H3V7H2V9H1V15H2V16H3V15H4V14H7V16H9V15H11V14H10V13H8V12H11V13H13V14H15V18H14V19H12V21H11V23H15V22H17V21H19V20H20V19H21V17H22V15H23V9H22ZM15 7H18V8H19V10H18V9H17V8H15V7ZM14 9H16V11H14V9ZM10 10H8V8H10V10ZM11 8V7H10V6H8V7H6V6H7V5H11V6H12V7H13V8H11Z" fill="white"/>
</svg>
